<svg width="321" height="882" viewBox="0 0 321 882" fill="none" xmlns="http://www.w3.org/2000/svg">
<path d="M314.81 879.054C311.793 881.22 308.027 882.109 304.25 881.59C300.478 881.067 297.005 879.178 294.684 876.275C285.262 864.503 275.392 852.782 265.335 841.179C176.149 737.395 66.3326 640.166 17.868 492.239C-33.6642 341.191 33.9905 175.871 122.432 60.4625C131.961 47.5605 142.026 34.638 152.782 21.5292C163.155 8.75391 178.005 0.920422 194.428 0.0791812C210.83 -0.781062 227.46 5.42088 240.298 16.993C253.135 28.5652 261.024 44.4652 261.864 60.868C262.725 77.2898 256.469 92.8702 244.835 104.509C234.188 115.145 224.203 125.559 214.736 135.898C126.775 231.231 64.5962 348.754 92.0357 472.722C117.595 597.345 211.794 706.436 292.275 820.146C301.293 832.977 310.166 845.988 318.609 859.094C320.618 862.221 321.298 866.117 320.588 869.858C319.873 873.602 317.827 876.887 314.81 879.054Z" fill="url(#paint0_radial_76_160)"/>
<defs>
<radialGradient id="paint0_radial_76_160" cx="0" cy="0" r="1" gradientUnits="userSpaceOnUse" gradientTransform="translate(491.784 447.791) rotate(175.896) scale(479.066 507.855)">
<stop stop-color="#DF5830" stop-opacity="0.55"/>
<stop offset="0.4" stop-color="#DF5830" stop-opacity="0.42"/>
<stop offset="0.72" stop-color="#DF5830" stop-opacity="0.24"/>
<stop offset="0.92" stop-color="#DF5830" stop-opacity="0.08"/>
<stop offset="1" stop-color="#DF5830" stop-opacity="0"/>
</radialGradient>
</defs>
</svg>
