<svg width="270" height="707" viewBox="0 0 270 707" fill="none" xmlns="http://www.w3.org/2000/svg">
<path d="M241.124 703.622C238.3 705.649 234.782 706.475 231.311 705.941C227.841 705.407 224.702 703.556 222.618 700.773C214.494 689.925 206.314 679.166 198.052 668.378C126.005 570.788 37.7787 478.567 6.17334 348.639C-28.2652 208.207 88.0571 91.2732 189.623 26.6167C201.018 19.0644 212.769 11.6526 225.222 4.16995C231.948 0.114855 239.962 -1.05916 247.545 0.984696C255.126 3.02405 261.655 8.11472 265.652 15.0569C269.649 21.9992 270.772 30.202 268.729 37.7817C266.689 45.366 261.65 51.7064 254.766 55.4867C242.739 62.0997 231.421 68.6196 220.486 75.2389C120.664 134.53 24.9703 225.759 48.4044 340.666C69.9729 453.139 152.214 551.694 220.911 651.583C228.775 662.746 236.579 673.905 244.339 685.176C246.31 688.04 247.06 691.606 246.458 695.065C245.854 698.524 243.947 701.594 241.124 703.622Z" fill="url(#paint0_radial_76_161)"/>
<defs>
<radialGradient id="paint0_radial_76_161" cx="0" cy="0" r="1" gradientUnits="userSpaceOnUse" gradientTransform="translate(521.921 292.221) rotate(173.634) scale(522.91 462.763)">
<stop stop-color="#521F5C" stop-opacity="0.5"/>
<stop offset="0.4" stop-color="#521F5C" stop-opacity="0.38"/>
<stop offset="0.72" stop-color="#521F5C" stop-opacity="0.2"/>
<stop offset="0.92" stop-color="#521F5C" stop-opacity="0.07"/>
<stop offset="1" stop-color="#521F5C" stop-opacity="0"/>
</radialGradient>
</defs>
</svg>
