<svg width="319" height="264" viewBox="0 0 319 264" fill="none" xmlns="http://www.w3.org/2000/svg">
<path d="M9.15772 177V153.143H0V148.701H23.0515V153.143H13.8938V177H9.15772Z" fill="white"/>
<path d="M26.9797 177V148.701H31.7158V160.61H45.1183V148.701H49.8347V177H45.1183V165.052H31.7158V177H26.9797Z" fill="white"/>
<path d="M56.1303 177V148.701H74.4064V153.143H60.8664V160.119H72.0482V164.56H60.8664V172.559H74.4064V177H56.1303Z" fill="white"/>
<path d="M88.5618 177V148.701H92.8263L102.613 168.746L112.399 148.701H116.664V177H112.242V158.861L103.556 177H101.67L93.0031 158.861V177H88.5618Z" fill="white"/>
<path d="M134.939 177.589C132.109 177.589 129.685 176.974 127.668 175.742C125.65 174.498 124.098 172.768 123.01 170.554C121.936 168.34 121.399 165.772 121.399 162.851C121.399 159.929 121.936 157.361 123.01 155.147C124.098 152.933 125.65 151.21 127.668 149.979C129.685 148.734 132.109 148.112 134.939 148.112C137.769 148.112 140.192 148.734 142.21 149.979C144.241 151.21 145.793 152.933 146.867 155.147C147.955 157.361 148.498 159.929 148.498 162.851C148.498 165.772 147.955 168.34 146.867 170.554C145.793 172.768 144.241 174.498 142.21 175.742C140.192 176.974 137.769 177.589 134.939 177.589ZM134.939 173.128C136.838 173.142 138.417 172.722 139.675 171.871C140.946 171.019 141.895 169.82 142.524 168.275C143.166 166.729 143.487 164.921 143.487 162.851C143.487 160.781 143.166 158.986 142.524 157.466C141.895 155.933 140.946 154.741 139.675 153.889C138.417 153.038 136.838 152.599 134.939 152.573C133.039 152.56 131.46 152.979 130.203 153.83C128.945 154.682 127.995 155.881 127.353 157.427C126.724 158.973 126.41 160.781 126.41 162.851C126.41 164.921 126.724 166.722 127.353 168.255C127.982 169.775 128.925 170.96 130.183 171.812C131.454 172.663 133.039 173.102 134.939 173.128Z" fill="white"/>
<path d="M165.164 177.589C162.334 177.589 159.91 176.974 157.893 175.742C155.875 174.498 154.323 172.768 153.235 170.554C152.161 168.34 151.624 165.772 151.624 162.851C151.624 159.929 152.161 157.361 153.235 155.147C154.323 152.933 155.875 151.21 157.893 149.979C159.91 148.734 162.334 148.112 165.164 148.112C167.994 148.112 170.418 148.734 172.435 149.979C174.466 151.21 176.018 152.933 177.093 155.147C178.18 157.361 178.724 159.929 178.724 162.851C178.724 165.772 178.18 168.34 177.093 170.554C176.018 172.768 174.466 174.498 172.435 175.742C170.418 176.974 167.994 177.589 165.164 177.589ZM165.164 173.128C167.064 173.142 168.642 172.722 169.9 171.871C171.171 171.019 172.121 169.82 172.75 168.275C173.392 166.729 173.713 164.921 173.713 162.851C173.713 160.781 173.392 158.986 172.75 157.466C172.121 155.933 171.171 154.741 169.9 153.889C168.642 153.038 167.064 152.599 165.164 152.573C163.264 152.56 161.686 152.979 160.428 153.83C159.17 154.682 158.22 155.881 157.578 157.427C156.95 158.973 156.635 160.781 156.635 162.851C156.635 164.921 156.95 166.722 157.578 168.255C158.207 169.775 159.151 170.96 160.408 171.812C161.679 172.663 163.264 173.102 165.164 173.128Z" fill="white"/>
<path d="M183.421 177V148.701H188.216L201.344 168.648V148.701H206.139V177H201.344L188.216 157.053V177H183.421Z" fill="white"/>
<path d="M222.893 177.589C220.823 177.589 218.956 177.229 217.292 176.509C215.641 175.788 214.279 174.76 213.205 173.423C212.143 172.074 211.469 170.476 211.18 168.628L216.093 167.881C216.513 169.558 217.371 170.855 218.668 171.773C219.978 172.69 221.485 173.148 223.188 173.148C224.196 173.148 225.146 172.991 226.037 172.677C226.928 172.362 227.649 171.904 228.199 171.301C228.762 170.698 229.044 169.958 229.044 169.08C229.044 168.687 228.978 168.327 228.847 167.999C228.716 167.659 228.52 167.357 228.258 167.095C228.009 166.833 227.681 166.598 227.275 166.388C226.882 166.165 226.424 165.975 225.9 165.818L218.589 163.656C217.96 163.473 217.279 163.231 216.545 162.929C215.825 162.615 215.137 162.189 214.482 161.652C213.84 161.102 213.309 160.407 212.89 159.569C212.484 158.717 212.281 157.669 212.281 156.425C212.281 154.603 212.739 153.077 213.657 151.846C214.587 150.601 215.831 149.671 217.39 149.055C218.963 148.439 220.705 148.138 222.618 148.151C224.557 148.164 226.286 148.498 227.806 149.153C229.326 149.795 230.596 150.732 231.618 151.964C232.64 153.195 233.361 154.682 233.78 156.425L228.69 157.309C228.481 156.313 228.074 155.468 227.472 154.774C226.882 154.066 226.155 153.529 225.29 153.162C224.439 152.795 223.528 152.599 222.559 152.573C221.616 152.56 220.738 152.704 219.925 153.005C219.126 153.293 218.478 153.713 217.98 154.263C217.495 154.813 217.253 155.455 217.253 156.189C217.253 156.883 217.462 157.453 217.882 157.898C218.301 158.331 218.818 158.678 219.434 158.94C220.063 159.189 220.698 159.398 221.34 159.569L226.411 160.984C227.105 161.167 227.884 161.416 228.749 161.73C229.614 162.045 230.446 162.484 231.245 163.047C232.044 163.61 232.699 164.351 233.21 165.268C233.734 166.185 233.996 167.351 233.996 168.766C233.996 170.233 233.688 171.524 233.073 172.637C232.47 173.738 231.651 174.655 230.616 175.388C229.581 176.122 228.395 176.672 227.059 177.039C225.736 177.406 224.347 177.589 222.893 177.589Z" fill="white"/>
<path d="M239.036 177V148.701H243.772V160.61H257.174V148.701H261.891V177H257.174V165.052H243.772V177H239.036Z" fill="white"/>
<path d="M280.154 177.589C277.325 177.589 274.901 176.974 272.883 175.742C270.866 174.498 269.313 172.768 268.226 170.554C267.151 168.34 266.614 165.772 266.614 162.851C266.614 159.929 267.151 157.361 268.226 155.147C269.313 152.933 270.866 151.21 272.883 149.979C274.901 148.734 277.325 148.112 280.154 148.112C282.984 148.112 285.408 148.734 287.426 149.979C289.456 151.21 291.009 152.933 292.083 155.147C293.17 157.361 293.714 159.929 293.714 162.851C293.714 165.772 293.17 168.34 292.083 170.554C291.009 172.768 289.456 174.498 287.426 175.742C285.408 176.974 282.984 177.589 280.154 177.589ZM280.154 173.128C282.054 173.142 283.633 172.722 284.89 171.871C286.161 171.019 287.111 169.82 287.74 168.275C288.382 166.729 288.703 164.921 288.703 162.851C288.703 160.781 288.382 158.986 287.74 157.466C287.111 155.933 286.161 154.741 284.89 153.889C283.633 153.038 282.054 152.599 280.154 152.573C278.255 152.56 276.676 152.979 275.418 153.83C274.161 154.682 273.211 155.881 272.569 157.427C271.94 158.973 271.626 160.781 271.626 162.851C271.626 164.921 271.94 166.722 272.569 168.255C273.198 169.775 274.141 170.96 275.399 171.812C276.669 172.663 278.255 173.102 280.154 173.128Z" fill="white"/>
<path d="M304.444 177V153.143H295.286V148.701H318.337V153.143H309.18V177H304.444Z" fill="white"/>
<path d="M9.22865 220V191.701H20.9214C21.1966 191.701 21.5503 191.714 21.9826 191.741C22.415 191.754 22.8146 191.793 23.1814 191.859C24.819 192.108 26.1685 192.651 27.2296 193.49C28.3039 194.328 29.0966 195.389 29.6075 196.673C30.1316 197.944 30.3936 199.359 30.3936 200.918C30.3936 202.464 30.1316 203.879 29.6075 205.163C29.0835 206.434 28.2843 207.488 27.21 208.327C26.1488 209.165 24.8059 209.709 23.1814 209.958C22.8146 210.01 22.4084 210.05 21.963 210.076C21.5306 210.102 21.1835 210.115 20.9214 210.115H13.9647V220H9.22865ZM13.9647 205.693H20.7249C20.9869 205.693 21.2817 205.68 21.6092 205.654C21.9368 205.628 22.2381 205.576 22.5132 205.497C23.2993 205.3 23.9151 204.953 24.3605 204.455C24.819 203.958 25.14 203.394 25.3234 202.765C25.5199 202.136 25.6182 201.521 25.6182 200.918C25.6182 200.315 25.5199 199.7 25.3234 199.071C25.14 198.429 24.819 197.859 24.3605 197.361C23.9151 196.863 23.2993 196.516 22.5132 196.32C22.2381 196.241 21.9368 196.195 21.6092 196.182C21.2817 196.156 20.9869 196.143 20.7249 196.143H13.9647V205.693Z" fill="white"/>
<path d="M35.1168 220V191.701H39.8528V203.61H53.2553V191.701H57.9717V220H53.2553V208.052H39.8528V220H35.1168Z" fill="white"/>
<path d="M64.6604 220V191.701H69.3965V220H64.6604Z" fill="white"/>
<path d="M76.4622 220V191.701H81.1983V215.559H93.6968V220H76.4622Z" fill="white"/>
<path d="M95.8468 220L104.769 191.701H111.706L120.628 220H115.754L107.658 194.61H108.719L100.72 220H95.8468ZM100.819 213.869V209.447H115.675V213.869H100.819Z" fill="white"/>
<path d="M124.967 220V191.701H129.762L142.889 211.648V191.701H147.684V220H142.889L129.762 200.053V220H124.967Z" fill="white"/>
<path d="M160.763 220V196.143H151.606V191.701H174.657V196.143H165.499V220H160.763Z" fill="white"/>
<path d="M178.585 220V191.701H183.321V203.61H196.724V191.701H201.44V220H196.724V208.052H183.321V220H178.585Z" fill="white"/>
<path d="M207.736 220V191.701H219.429C219.704 191.701 220.058 191.714 220.49 191.741C220.922 191.754 221.322 191.793 221.689 191.859C223.326 192.108 224.676 192.651 225.737 193.49C226.811 194.328 227.604 195.389 228.115 196.673C228.639 197.944 228.901 199.359 228.901 200.918C228.901 203.224 228.318 205.209 227.152 206.873C225.986 208.523 224.197 209.545 221.787 209.938L219.763 210.115H212.472V220H207.736ZM223.988 220L218.407 208.484L223.221 207.423L229.353 220H223.988ZM212.472 205.693H219.232C219.494 205.693 219.789 205.68 220.116 205.654C220.444 205.628 220.745 205.576 221.02 205.497C221.807 205.3 222.422 204.953 222.868 204.455C223.326 203.958 223.647 203.394 223.831 202.765C224.027 202.136 224.125 201.521 224.125 200.918C224.125 200.315 224.027 199.7 223.831 199.071C223.647 198.429 223.326 197.859 222.868 197.361C222.422 196.863 221.807 196.516 221.02 196.32C220.745 196.241 220.444 196.195 220.116 196.182C219.789 196.156 219.494 196.143 219.232 196.143H212.472V205.693Z" fill="white"/>
<path d="M246.436 220.589C243.606 220.589 241.183 219.974 239.165 218.742C237.148 217.498 235.595 215.768 234.508 213.554C233.433 211.34 232.896 208.772 232.896 205.851C232.896 202.929 233.433 200.361 234.508 198.147C235.595 195.933 237.148 194.21 239.165 192.979C241.183 191.734 243.606 191.112 246.436 191.112C249.266 191.112 251.69 191.734 253.707 192.979C255.738 194.21 257.291 195.933 258.365 198.147C259.452 200.361 259.996 202.929 259.996 205.851C259.996 208.772 259.452 211.34 258.365 213.554C257.291 215.768 255.738 217.498 253.707 218.742C251.69 219.974 249.266 220.589 246.436 220.589ZM246.436 216.128C248.336 216.142 249.915 215.722 251.172 214.871C252.443 214.019 253.393 212.82 254.022 211.275C254.664 209.729 254.985 207.921 254.985 205.851C254.985 203.781 254.664 201.986 254.022 200.466C253.393 198.933 252.443 197.741 251.172 196.889C249.915 196.038 248.336 195.599 246.436 195.573C244.537 195.56 242.958 195.979 241.7 196.83C240.443 197.682 239.493 198.881 238.851 200.427C238.222 201.973 237.907 203.781 237.907 205.851C237.907 207.921 238.222 209.722 238.851 211.255C239.48 212.775 240.423 213.96 241.681 214.812C242.951 215.663 244.537 216.102 246.436 216.128Z" fill="white"/>
<path d="M264.694 220V191.701H276.387C276.662 191.701 277.015 191.714 277.448 191.741C277.88 191.754 278.28 191.793 278.646 191.859C280.284 192.108 281.634 192.651 282.695 193.49C283.769 194.328 284.562 195.389 285.073 196.673C285.597 197.944 285.859 199.359 285.859 200.918C285.859 202.464 285.597 203.879 285.073 205.163C284.549 206.434 283.749 207.488 282.675 208.327C281.614 209.165 280.271 209.709 278.646 209.958C278.28 210.01 277.873 210.05 277.428 210.076C276.996 210.102 276.649 210.115 276.387 210.115H269.43V220H264.694ZM269.43 205.693H276.19C276.452 205.693 276.747 205.68 277.074 205.654C277.402 205.628 277.703 205.576 277.978 205.497C278.764 205.3 279.38 204.953 279.826 204.455C280.284 203.958 280.605 203.394 280.788 202.765C280.985 202.136 281.083 201.521 281.083 200.918C281.083 200.315 280.985 199.7 280.788 199.071C280.605 198.429 280.284 197.859 279.826 197.361C279.38 196.863 278.764 196.516 277.978 196.32C277.703 196.241 277.402 196.195 277.074 196.182C276.747 196.156 276.452 196.143 276.19 196.143H269.43V205.693Z" fill="white"/>
<path d="M297.46 220V208.405L287.831 191.701H293.353L299.857 202.981L306.342 191.701H311.865L302.255 208.405V220H297.46Z" fill="white"/>
<path d="M92.3201 263.589C90.2501 263.589 88.3832 263.229 86.7193 262.509C85.0686 261.788 83.7061 260.76 82.6318 259.423C81.5706 258.074 80.8959 256.476 80.6076 254.628L85.5206 253.881C85.9398 255.558 86.7979 256.855 88.095 257.773C89.4051 258.69 90.9117 259.148 92.6149 259.148C93.6236 259.148 94.5735 258.991 95.4644 258.677C96.3552 258.362 97.0758 257.904 97.6261 257.301C98.1894 256.698 98.4711 255.958 98.4711 255.08C98.4711 254.687 98.4056 254.327 98.2746 253.999C98.1435 253.659 97.947 253.357 97.685 253.095C97.4361 252.833 97.1086 252.598 96.7024 252.388C96.3094 252.165 95.8508 251.975 95.3268 251.818L88.0163 249.656C87.3875 249.473 86.7062 249.231 85.9726 248.929C85.252 248.615 84.5642 248.189 83.9091 247.652C83.2672 247.102 82.7366 246.407 82.3173 245.569C81.9112 244.717 81.7081 243.669 81.7081 242.425C81.7081 240.603 82.1667 239.077 83.0838 237.846C84.0139 236.601 85.2586 235.671 86.8176 235.055C88.3897 234.439 90.1322 234.138 92.045 234.151C93.9839 234.164 95.7133 234.498 97.233 235.153C98.7528 235.795 100.024 236.732 101.045 237.964C102.067 239.195 102.788 240.682 103.207 242.425L98.1173 243.309C97.9077 242.313 97.5016 241.468 96.8989 240.774C96.3094 240.066 95.5823 239.529 94.7176 239.162C93.866 238.795 92.9555 238.599 91.986 238.573C91.0427 238.56 90.1649 238.704 89.3527 239.005C88.5535 239.293 87.905 239.713 87.4071 240.263C86.9224 240.813 86.68 241.455 86.68 242.189C86.68 242.883 86.8896 243.453 87.3089 243.898C87.7281 244.331 88.2456 244.678 88.8614 244.94C89.4902 245.189 90.1256 245.398 90.7676 245.569L95.8377 246.984C96.5321 247.167 97.3116 247.416 98.1763 247.73C99.041 248.045 99.8729 248.484 100.672 249.047C101.471 249.61 102.126 250.351 102.637 251.268C103.161 252.185 103.423 253.351 103.423 254.766C103.423 256.233 103.115 257.524 102.5 258.637C101.897 259.738 101.078 260.655 100.043 261.388C99.0082 262.122 97.8226 262.672 96.4863 263.039C95.163 263.406 93.7743 263.589 92.3201 263.589Z" fill="white"/>
<path d="M119.861 263.589C117.608 263.589 115.623 263.131 113.907 262.214C112.203 261.297 110.867 260.006 109.898 258.342C108.941 256.679 108.463 254.726 108.463 252.486V234.741L113.258 234.701V252.368C113.258 253.429 113.435 254.379 113.789 255.218C114.156 256.056 114.647 256.77 115.263 257.36C115.878 257.936 116.586 258.375 117.385 258.677C118.184 258.978 119.01 259.128 119.861 259.128C120.739 259.128 121.571 258.978 122.357 258.677C123.156 258.362 123.863 257.917 124.479 257.34C125.095 256.751 125.58 256.037 125.933 255.198C126.287 254.36 126.464 253.416 126.464 252.368V234.701H131.259V252.486C131.259 254.726 130.774 256.679 129.805 258.342C128.848 260.006 127.512 261.297 125.796 262.214C124.093 263.131 122.114 263.589 119.861 263.589Z" fill="white"/>
<path d="M137.537 263V234.701H141.801L151.588 254.746L161.374 234.701H165.639V263H161.217V244.861L152.531 263H150.645L141.978 244.861V263H137.537Z" fill="white"/>
<path d="M171.946 263V234.701H176.21L185.997 254.746L195.783 234.701H200.048V263H195.626V244.861L186.94 263H185.054L176.387 244.861V263H171.946Z" fill="white"/>
<path d="M206.748 263V234.701H211.484V263H206.748Z" fill="white"/>
<path d="M224.956 263V239.143H215.798V234.701H238.85V239.143H229.692V263H224.956Z" fill="white"/>
<path d="M158.553 0C193.731 0 222.249 28.5175 222.249 63.6953C222.249 98.873 193.731 127.391 158.553 127.391C138.166 127.391 120.015 117.811 108.357 102.908C124.258 87.977 137.52 81.4287 152.825 76.5996C153.666 76.3344 154.582 76.6586 155.073 77.3906L167.173 95.4316C168.268 97.0629 170.812 96.3038 170.835 94.3398L171.075 72.627C171.085 71.7411 171.677 70.9666 172.529 70.7246L193.417 64.793C195.306 64.2563 195.371 61.6013 193.509 60.9736L172.933 54.0352C172.094 53.7519 171.541 52.9505 171.574 52.0654L172.387 30.3662C172.461 28.4035 169.956 27.5224 168.784 29.0986L155.827 46.5234C155.298 47.2341 154.364 47.5121 153.533 47.207L133.148 39.7285C131.304 39.0519 129.691 41.1617 130.828 42.7637L143.01 59.9277C143.685 60.8777 143.408 62.1989 142.417 62.8115C129.279 70.9338 116.645 81.3453 104.014 96.6143C98.2033 87.0075 94.8581 75.7421 94.858 63.6953C94.858 28.5175 123.376 8.04139e-05 158.553 0Z" fill="white"/>
</svg>
