<svg width="45" height="45" viewBox="0 0 45 45" fill="none" xmlns="http://www.w3.org/2000/svg">
<path d="M21.7114 0.000524169C15.8884 0.0688415 10.0651 0.174337 4.24212 0.316258C2.99469 0.346661 1.74725 0.378484 0.499831 0.412265C0.367238 0.415876 0.240243 0.469984 0.146487 0.564688C0.0527735 0.659359 2.24252e-06 0.786492 2.24252e-06 0.919022C2.24252e-06 1.05155 0.0527735 1.17868 0.146487 1.27336C0.240243 1.36806 0.367238 1.42217 0.499831 1.42578C1.74725 1.45956 2.99469 1.49138 4.24212 1.52179C10.0651 1.66371 15.8884 1.7692 21.7114 1.83752C22.799 1.84934 23.8662 2.30947 24.6163 3.08165C27.4744 5.99081 30.3456 8.88713 33.2292 11.7708C36.1129 14.6544 39.0092 17.5256 41.9184 20.3837C42.6905 21.1338 43.1507 22.201 43.1625 23.2886C43.2308 29.1116 43.3363 34.9349 43.4782 40.7579C43.5086 42.0053 43.5404 43.2527 43.5742 44.5002C43.5778 44.6328 43.6319 44.7598 43.7266 44.8535C43.8213 44.9472 43.9484 45 44.081 45C44.2135 45 44.3406 44.9472 44.4353 44.8535C44.53 44.7598 44.5841 44.6328 44.5877 44.5002C44.6215 43.2527 44.6533 42.0053 44.6837 40.7579C44.8257 34.9349 44.9312 29.1116 44.9995 23.2886C45.0208 21.7198 44.3881 20.1482 43.2753 19.0267C40.4172 16.1175 37.546 13.2212 34.6624 10.3376C31.7788 7.45395 28.8825 4.58279 25.9733 1.72469C24.8518 0.611849 23.2802 -0.0208405 21.7114 0.000524169Z" fill="white"/>
</svg>
