<svg width="45" height="45" viewBox="0 0 45 45" fill="none" xmlns="http://www.w3.org/2000/svg">
<path d="M23.2886 0.000524169C29.1116 0.0688415 34.9349 0.174337 40.7579 0.316258C42.0053 0.346661 43.2527 0.378484 44.5002 0.412265C44.6328 0.415876 44.7598 0.469984 44.8535 0.564688C44.9472 0.659359 45 0.786492 45 0.919022C45 1.05155 44.9472 1.17868 44.8535 1.27336C44.7598 1.36806 44.6328 1.42217 44.5002 1.42578C43.2527 1.45956 42.0053 1.49138 40.7579 1.52179C34.9349 1.66371 29.1116 1.7692 23.2886 1.83752C22.201 1.84934 21.1338 2.30947 20.3837 3.08165C17.5256 5.99081 14.6544 8.88713 11.7708 11.7708C8.88713 14.6544 5.99081 17.5256 3.08165 20.3837C2.30947 21.1338 1.84934 22.201 1.83752 23.2886C1.7692 29.1116 1.66371 34.9349 1.52179 40.7579C1.49138 42.0053 1.45956 43.2527 1.42578 44.5002C1.42217 44.6328 1.36806 44.7598 1.27336 44.8535C1.17868 44.9472 1.05155 45 0.919022 45C0.786492 45 0.659359 44.9472 0.564688 44.8535C0.469984 44.7598 0.415876 44.6328 0.412265 44.5002C0.378484 43.2527 0.346661 42.0053 0.316258 40.7579C0.174337 34.9349 0.0688415 29.1116 0.000524161 23.2886C-0.0208404 21.7198 0.61185 20.1482 1.72469 19.0267C4.58279 16.1175 7.45395 13.2212 10.3376 10.3376C13.2212 7.45395 16.1175 4.58279 19.0267 1.72469C20.1482 0.611849 21.7198 -0.0208405 23.2886 0.000524169Z" fill="white"/>
</svg>
